<svg width="21" height="21" viewBox="0 0 21 21" fill="none" xmlns="http://www.w3.org/2000/svg">
<g clip-path="url(#clip0_44_24)">
<path d="M20.2492 9.82404C20.6133 9.75018 20.875 9.43005 20.875 9.0585V7.06616C20.875 5.34299 19.4732 3.94116 17.75 3.94116H4C2.27682 3.94116 0.875 5.34299 0.875 7.06616V9.0585C0.875 9.43005 1.13669 9.75018 1.50076 9.82404C2.04352 9.9342 2.4375 10.4171 2.4375 10.9724C2.4375 11.5277 2.04352 12.0106 1.50076 12.1208C1.13669 12.1946 0.875 12.5148 0.875 12.8863V14.8787C0.875 16.6018 2.27682 18.0037 4 18.0037H17.75C19.4732 18.0037 20.875 16.6018 20.875 14.8787V12.8863C20.875 12.5148 20.6133 12.1946 20.2492 12.1208C19.7065 12.0106 19.3125 11.5277 19.3125 10.9724C19.3125 10.4171 19.7065 9.9342 20.2492 9.82404ZM19.3125 8.50171C18.3787 8.9465 17.75 9.90201 17.75 10.9724C17.75 12.0428 18.3787 12.9983 19.3125 13.4431V14.8787C19.3125 15.7402 18.6115 16.4412 17.75 16.4412H14.7422C14.7422 16.0096 14.3925 15.6599 13.9609 15.6599C13.5294 15.6599 13.1797 16.0096 13.1797 16.4412H4C3.13849 16.4412 2.4375 15.7402 2.4375 14.8787V13.4431C3.37134 12.9983 4 12.0428 4 10.9724C4 9.90201 3.37134 8.9465 2.4375 8.50171V7.06616C2.4375 6.20465 3.13849 5.50366 4 5.50366H13.1797C13.1797 5.93518 13.5294 6.28491 13.9609 6.28491C14.3925 6.28491 14.7422 5.93518 14.7422 5.50366H17.75C18.6115 5.50366 19.3125 6.20465 19.3125 7.06616V8.50171ZM14.7422 8.23804C14.7422 8.66956 14.3925 9.01929 13.9609 9.01929C13.5294 9.01929 13.1797 8.66956 13.1797 8.23804C13.1797 7.80652 13.5294 7.45679 13.9609 7.45679C14.3925 7.45679 14.7422 7.80652 14.7422 8.23804ZM14.7422 10.9724C14.7422 11.4039 14.3925 11.7537 13.9609 11.7537C13.5294 11.7537 13.1797 11.4039 13.1797 10.9724C13.1797 10.5409 13.5294 10.1912 13.9609 10.1912C14.3925 10.1912 14.7422 10.5409 14.7422 10.9724ZM14.7422 13.7068C14.7422 14.1383 14.3925 14.488 13.9609 14.488C13.5294 14.488 13.1797 14.1383 13.1797 13.7068C13.1797 13.2753 13.5294 12.9255 13.9609 12.9255C14.3925 12.9255 14.7422 13.2753 14.7422 13.7068Z" fill="#252B5C"/>
</g>
<defs>
<clipPath id="clip0_44_24">
<rect width="20" height="20" fill="white" transform="translate(0.875 0.972412)"/>
</clipPath>
</defs>
</svg>
