<svg width="21" height="21" viewBox="0 0 21 21" fill="none" xmlns="http://www.w3.org/2000/svg">
<path d="M15.4904 2.26463H15.2596V2.03386C15.2596 1.65171 14.9495 1.34155 14.5673 1.34155C14.1852 1.34155 13.875 1.65171 13.875 2.03386V2.26463H7.875V2.03386C7.875 1.65171 7.56485 1.34155 7.18269 1.34155C6.80054 1.34155 6.49038 1.65171 6.49038 2.03386V2.26463H6.25962C3.84208 2.26463 1.875 4.23171 1.875 6.64925V14.9569C1.875 17.3745 3.84208 19.3416 6.25962 19.3416H15.4904C17.9079 19.3416 19.875 17.3745 19.875 14.9569V6.64925C19.875 4.23171 17.9079 2.26463 15.4904 2.26463ZM6.25962 3.64925H6.49038V4.80309C6.49038 5.18525 6.80054 5.4954 7.18269 5.4954C7.56485 5.4954 7.875 5.18525 7.875 4.80309V3.64925H13.875V4.80309C13.875 5.18525 14.1852 5.4954 14.5673 5.4954C14.9495 5.4954 15.2596 5.18525 15.2596 4.80309V3.64925H15.4904C17.1445 3.64925 18.4904 4.99509 18.4904 6.64925V6.88001H3.25962V6.64925C3.25962 4.99509 4.60546 3.64925 6.25962 3.64925ZM15.4904 17.9569H6.25962C4.60546 17.9569 3.25962 16.6111 3.25962 14.9569V8.26463H18.4904V14.9569C18.4904 16.6111 17.1445 17.9569 15.4904 17.9569ZM15.4904 11.2646C15.4904 11.7742 15.0768 12.1877 14.5673 12.1877C14.0578 12.1877 13.6442 11.7742 13.6442 11.2646C13.6442 10.7551 14.0578 10.3416 14.5673 10.3416C15.0768 10.3416 15.4904 10.7551 15.4904 11.2646ZM11.7981 11.2646C11.7981 11.7742 11.3845 12.1877 10.875 12.1877C10.3655 12.1877 9.95192 11.7742 9.95192 11.2646C9.95192 10.7551 10.3655 10.3416 10.875 10.3416C11.3845 10.3416 11.7981 10.7551 11.7981 11.2646ZM8.10577 11.2646C8.10577 11.7742 7.69223 12.1877 7.18269 12.1877C6.67315 12.1877 6.25962 11.7742 6.25962 11.2646C6.25962 10.7551 6.67315 10.3416 7.18269 10.3416C7.69223 10.3416 8.10577 10.7551 8.10577 11.2646ZM15.4904 14.9569C15.4904 15.4665 15.0768 15.88 14.5673 15.88C14.0578 15.88 13.6442 15.4665 13.6442 14.9569C13.6442 14.4474 14.0578 14.0339 14.5673 14.0339C15.0768 14.0339 15.4904 14.4474 15.4904 14.9569ZM11.7981 14.9569C11.7981 15.4665 11.3845 15.88 10.875 15.88C10.3655 15.88 9.95192 15.4665 9.95192 14.9569C9.95192 14.4474 10.3655 14.0339 10.875 14.0339C11.3845 14.0339 11.7981 14.4474 11.7981 14.9569ZM8.10577 14.9569C8.10577 15.4665 7.69223 15.88 7.18269 15.88C6.67315 15.88 6.25962 15.4665 6.25962 14.9569C6.25962 14.4474 6.67315 14.0339 7.18269 14.0339C7.69223 14.0339 8.10577 14.4474 8.10577 14.9569Z" fill="#252B5C"/>
</svg>
