<svg width="21" height="21" viewBox="0 0 21 21" fill="none" xmlns="http://www.w3.org/2000/svg">
<path d="M8.4947 18.2908V15.7351C8.49468 15.0874 9.02131 14.5613 9.67362 14.5572H12.0688C12.724 14.5572 13.2551 15.0846 13.2551 15.7351V18.2834C13.2551 18.8451 13.7116 19.3016 14.2774 19.3057H15.9114C16.6746 19.3076 17.4072 19.008 17.9476 18.473C18.4879 17.9379 18.7916 17.2113 18.7916 16.4536V9.19391C18.7916 8.58186 18.5183 8.0013 18.0454 7.60862L12.4941 3.20093C11.5237 2.42997 10.1377 2.45488 9.19608 3.26019L3.7641 7.60862C3.26887 7.98972 2.97288 8.57201 2.95825 9.19391V16.4462C2.95825 18.0255 4.24774 19.3057 5.8384 19.3057H7.43516C7.70756 19.3077 7.96949 19.2016 8.16281 19.0111C8.35613 18.8205 8.46486 18.5612 8.46485 18.2908H8.4947Z" fill="#252B5C" stroke="#252B5C"/>
</svg>
