<svg width="21" height="21" viewBox="0 0 21 21" fill="none" xmlns="http://www.w3.org/2000/svg">
<path d="M19.625 8.76458C19.628 10.1537 19.1093 11.4901 18.1777 12.4931C16.0418 14.7781 13.9698 17.1605 11.7551 19.3615C11.2468 19.8581 10.4409 19.84 9.95525 19.3209L3.57205 12.494C1.64265 10.4302 1.64265 7.09893 3.57205 5.03605C4.02805 4.54222 4.5765 4.14907 5.18416 3.88045C5.79181 3.61183 6.44601 3.47331 7.10709 3.47331C7.76817 3.47331 8.42237 3.61183 9.03002 3.88045C9.63767 4.14907 10.1861 4.54222 10.6421 5.03605L10.8749 5.28341L11.1068 5.03605C11.5637 4.54339 12.1123 4.15096 12.7197 3.88228C13.3272 3.6136 13.9809 3.47419 14.6418 3.47241C15.9718 3.47241 17.2432 4.03575 18.1768 5.03605C19.1087 6.03891 19.6278 7.37528 19.625 8.76458Z" fill="#252B5C"/>
</svg>
