<svg width="21" height="21" viewBox="0 0 21 21" fill="none" xmlns="http://www.w3.org/2000/svg">
<path d="M10.875 1.97241C6.90539 1.97241 3.67499 5.02191 3.67499 8.77116C3.67499 14.0984 10.1982 19.5989 10.4758 19.8299C10.5902 19.9252 10.7326 19.9724 10.875 19.9724C11.0174 19.9724 11.1598 19.9252 11.2742 19.8307C11.5518 19.5989 18.075 14.0984 18.075 8.77116C18.075 5.02191 14.8446 1.97241 10.875 1.97241ZM10.875 12.4724C8.66939 12.4724 6.87499 10.7902 6.87499 8.72241C6.87499 6.65466 8.66939 4.97241 10.875 4.97241C13.0806 4.97241 14.875 6.65466 14.875 8.72241C14.875 10.7902 13.0806 12.4724 10.875 12.4724Z" fill="#252B5C"/>
</svg>
