<svg width="21" height="21" viewBox="0 0 21 21" fill="none" xmlns="http://www.w3.org/2000/svg">
<path d="M19.2325 2.72217C19.1326 2.72213 19.0341 2.7434 18.9448 2.78432L14.0733 5.01773L8.56461 2.77313C8.5556 2.76961 8.54532 2.76899 8.53568 2.76547C8.51089 2.75697 8.48554 2.74989 8.45981 2.74427C8.43424 2.73795 8.40825 2.73301 8.38203 2.72952C8.32982 2.72559 8.27735 2.72559 8.22518 2.72952C8.19897 2.73301 8.17298 2.73795 8.1474 2.74427C8.12167 2.74989 8.09632 2.75697 8.07154 2.76547C8.06189 2.76899 8.05161 2.76958 8.04261 2.77313L2.25687 5.13029C2.02462 5.22483 1.87496 5.43594 1.875 5.66887V18.6332C1.87511 18.8326 1.98514 19.0184 2.16749 19.127C2.34987 19.2358 2.57991 19.2527 2.77883 19.1718L8.30357 16.9207L13.8283 19.1718C13.8379 19.1753 13.8482 19.1718 13.8579 19.1771C14.0135 19.2409 14.1922 19.2373 14.3445 19.1671C14.3548 19.163 14.3663 19.1671 14.3766 19.1606L19.5195 16.8035C19.7374 16.7036 19.8751 16.4994 19.875 16.276V3.31174C19.8752 2.98628 19.5875 2.72231 19.2325 2.72217ZM7.66073 15.893L3.16071 17.7263V6.05193L7.66073 4.21863V15.893ZM13.4465 17.7263L8.94644 15.893V4.21863L13.4465 6.05189V17.7263ZM18.5893 15.9119L14.7322 17.6797V6.03304L18.5893 4.26518V15.9119Z" fill="#252B5C" stroke="#252B5C" stroke-width="0.2"/>
</svg>
