<svg width="21" height="21" viewBox="0 0 21 21" fill="none" xmlns="http://www.w3.org/2000/svg">
<path d="M17.5813 14.0693C16.5781 12.8416 15.8699 12.2166 15.8699 8.83179C15.8699 5.73218 14.2871 4.62788 12.9844 4.09155C12.8113 4.02046 12.6484 3.85718 12.5957 3.67944C12.3672 2.90171 11.7266 2.21655 10.875 2.21655C10.0234 2.21655 9.38243 2.9021 9.15626 3.68022C9.10353 3.85991 8.94063 4.02046 8.76759 4.09155C7.46329 4.62866 5.88204 5.72905 5.88204 8.83179C5.88009 12.2166 5.17188 12.8416 4.16876 14.0693C3.75313 14.5779 4.1172 15.3416 4.84415 15.3416H16.9098C17.6328 15.3416 17.9945 14.5755 17.5813 14.0693Z" stroke="#252B5C" stroke-width="1.25" stroke-linecap="round" stroke-linejoin="round"/>
<path d="M13.375 15.3416V15.9666C13.375 16.6296 13.1116 17.2655 12.6428 17.7343C12.1739 18.2032 11.538 18.4666 10.875 18.4666C10.212 18.4666 9.57607 18.2032 9.10723 17.7343C8.63839 17.2655 8.375 16.6296 8.375 15.9666V15.3416" stroke="#252B5C" stroke-width="1.25" stroke-linecap="round" stroke-linejoin="round"/>
</svg>
