<svg width="21" height="21" viewBox="0 0 21 21" fill="none" xmlns="http://www.w3.org/2000/svg">
<g clip-path="url(#clip0_44_25)">
<path d="M6.49953 7.81474C6.52798 7.88586 6.55756 7.95587 6.589 8.0255C6.761 8.40515 6.98269 8.76027 7.24823 9.08153C7.29615 9.13956 7.34519 9.19646 7.3961 9.25224C7.83619 9.73789 8.37309 10.126 8.97225 10.3916C9.5714 10.6572 10.2195 10.7945 10.8749 10.7945C11.5303 10.7945 12.1784 10.6572 12.7776 10.3916C13.3768 10.126 13.9137 9.73789 14.3537 9.25224C14.4047 9.19646 14.4537 9.13993 14.5016 9.08153C14.5495 9.02314 14.5963 8.96436 14.6416 8.90372C14.6641 8.87377 14.6862 8.84307 14.7083 8.81238C14.7959 8.68959 14.8775 8.56244 14.9531 8.43092C14.9905 8.3654 15.0279 8.29877 15.0616 8.23101C15.0953 8.16326 15.1294 8.09475 15.1608 8.0255C15.1923 7.95624 15.2219 7.88586 15.2503 7.81474C15.2788 7.74361 15.3046 7.67136 15.3293 7.59874C15.4937 7.11342 15.5773 6.6044 15.5767 6.09198C15.5767 3.49887 13.4677 1.38904 10.8749 1.38904C8.28218 1.38904 6.1731 3.49887 6.1731 6.09198C6.17241 6.60437 6.25587 7.1134 6.42017 7.59874C6.44513 7.67136 6.47158 7.74336 6.49953 7.81474ZM7.92206 4.8454C8.02279 4.60723 8.15214 4.38222 8.30726 4.17532C8.36866 4.09296 8.43417 4.0136 8.50305 3.93761C8.60673 3.82381 8.71831 3.71748 8.83697 3.61941C8.99579 3.48807 9.16691 3.37236 9.34795 3.27388C9.43892 3.22447 9.53213 3.17917 9.62797 3.13874C10.0223 2.97222 10.4461 2.88643 10.8742 2.88643C11.3023 2.88643 11.726 2.97222 12.1204 3.13874C12.2162 3.17917 12.3076 3.22447 12.4004 3.27388C12.5814 3.37236 12.7526 3.48807 12.9114 3.61941C13.03 3.71748 13.1416 3.82381 13.2453 3.93761C13.3142 4.01248 13.3797 4.09296 13.4411 4.17532C13.8551 4.72846 14.0784 5.40104 14.0775 6.09198C14.0775 6.14701 14.0775 6.20204 14.0734 6.2567C14.0336 7.07879 13.679 7.85407 13.0831 8.42182C12.4872 8.98958 11.6957 9.30628 10.8727 9.30628C10.0496 9.30628 9.25812 8.98958 8.66223 8.42182C8.06634 7.85407 7.71177 7.07879 7.67199 6.2567C7.66937 6.20204 7.66788 6.14701 7.66788 6.09198C7.66818 5.66354 7.75489 5.23956 7.92281 4.8454H7.92206Z" fill="#252B5C"/>
<path d="M17.4261 15.782C17.4197 15.7663 17.4141 15.7509 17.407 15.7356C16.9044 14.6677 16.1478 13.7394 15.2032 13.0318C14.2587 12.3242 13.1551 11.859 11.989 11.6769L11.9565 11.6716C11.9052 11.6641 11.8535 11.6567 11.8022 11.6503L11.7902 11.6484C11.7363 11.6417 11.6821 11.6357 11.6278 11.6301L11.5851 11.6256L11.4571 11.6144L11.4159 11.611C11.362 11.6069 11.3085 11.6035 11.2546 11.6005H11.2212C11.1763 11.5983 11.1314 11.5964 11.0865 11.5953H11.0408C10.9854 11.5953 10.9304 11.593 10.875 11.593C10.8199 11.593 10.7653 11.593 10.7103 11.5953H10.6638C10.6193 11.5953 10.5747 11.5983 10.5302 11.6001L10.4961 11.602C10.4422 11.6046 10.3887 11.608 10.3352 11.6121L10.2932 11.6155C10.2506 11.6188 10.2083 11.6226 10.1659 11.6267L10.1225 11.6312C10.0682 11.6368 10.0143 11.6428 9.96043 11.6495L9.9477 11.6514C9.89642 11.6578 9.84551 11.6653 9.7946 11.6728L9.76165 11.678C8.59566 11.86 7.49205 12.325 6.54745 13.0324C5.60284 13.7397 4.84605 14.6679 4.34333 15.7356C4.33621 15.7509 4.3306 15.7663 4.32461 15.782C3.88448 16.7303 3.65705 17.7635 3.65827 18.809V19.807C3.65802 19.9807 3.71839 20.1491 3.82897 20.2832C3.87453 20.3386 3.92771 20.3872 3.98695 20.4277C4.11092 20.5115 4.25728 20.5561 4.40697 20.5557H17.343C17.4927 20.5561 17.639 20.5115 17.763 20.4277C17.8226 20.3873 17.8762 20.3386 17.9221 20.2832C18.0323 20.149 18.0922 19.9806 18.0917 19.807V18.809C18.0929 17.7635 17.8658 16.7305 17.4261 15.782ZM5.15566 19.0583V18.809C5.15452 17.3876 5.68443 16.0171 6.64146 14.9663L6.64894 14.958C6.68975 14.9131 6.73167 14.8693 6.7736 14.8259C6.80018 14.7986 6.82676 14.7716 6.85409 14.745C6.86569 14.7331 6.87767 14.7215 6.88965 14.7098C7.90171 13.7283 9.23917 13.1529 10.6477 13.093H10.6852C10.7481 13.0908 10.8105 13.0897 10.8723 13.0897C10.9342 13.0897 10.9966 13.0908 11.0595 13.093H11.097C12.5056 13.1528 13.8432 13.7284 14.855 14.7102L14.8925 14.7447C14.9198 14.7716 14.9464 14.7989 14.973 14.8263C15.0149 14.8694 15.0563 14.9132 15.0972 14.9577L15.1051 14.9663C16.0621 16.0171 16.592 17.3876 16.5909 18.809V19.0583H5.15566Z" fill="#252B5C"/>
</g>
<defs>
<clipPath id="clip0_44_25">
<rect width="20" height="20" fill="white" transform="translate(0.875 0.972412)"/>
</clipPath>
</defs>
</svg>
