<svg width="21" height="21" viewBox="0 0 21 21" fill="none" xmlns="http://www.w3.org/2000/svg">
<g clip-path="url(#clip0_44_23)">
<path d="M18.8584 4.60728C16.7894 2.5389 13.4237 2.5389 11.3553 4.60728L10.8749 5.08742L10.3947 4.60728C8.32633 2.53862 4.96031 2.53862 2.89193 4.60728C0.865538 6.63367 0.85238 9.84571 2.86141 12.079C4.69378 14.1152 10.098 18.5143 10.3272 18.7005C10.4829 18.827 10.6702 18.8886 10.8564 18.8886C10.8625 18.8886 10.8687 18.8886 10.8746 18.8883C11.0672 18.8973 11.2612 18.8312 11.4219 18.7005C11.6512 18.5143 17.0559 14.1152 18.8889 12.0787C20.8976 9.84571 20.8845 6.63367 18.8584 4.60728ZM17.6402 10.9552C16.2116 12.5423 12.2845 15.8157 10.8746 16.9773C9.46467 15.816 5.53844 12.5429 4.11006 10.9555C2.70855 9.39777 2.69539 7.17933 4.07954 5.79518C4.78645 5.08854 5.71482 4.73495 6.64318 4.73495C7.57155 4.73495 8.49991 5.08826 9.20683 5.79518L10.2629 6.85121C10.3886 6.97691 10.547 7.05194 10.7133 7.07826C10.9832 7.13621 11.276 7.0609 11.486 6.85149L12.5426 5.79518C13.9567 4.38163 16.2569 4.38191 17.6702 5.79518C19.0543 7.17933 19.0412 9.39777 17.6402 10.9552Z" fill="#252B5C"/>
</g>
<defs>
<clipPath id="clip0_44_23">
<rect width="20" height="20" fill="white" transform="translate(0.875 0.972412)"/>
</clipPath>
</defs>
</svg>
