<svg width="21" height="21" viewBox="0 0 21 21" fill="none" xmlns="http://www.w3.org/2000/svg">
<g clip-path="url(#clip0_63_597)">
<path d="M19.2945 11.6037C19.4356 11.9508 19.2685 12.3466 18.9213 12.4876L17.0359 13.2544L18.7809 14.303C19.1063 14.4888 19.2195 14.9033 19.0336 15.2287C18.8478 15.5541 18.4333 15.6673 18.1079 15.4815C18.0991 15.4765 18.0905 15.4713 18.082 15.4659L16.3371 14.4175L16.5453 16.443C16.5775 16.8164 16.301 17.1452 15.9276 17.1775C15.5627 17.209 15.2386 16.9452 15.1954 16.5815L14.8832 13.5439L11.5486 11.5407V15.4308L13.9915 17.263C14.2913 17.4878 14.3521 17.9131 14.1272 18.213C13.9024 18.5128 13.4771 18.5735 13.1772 18.3487L11.5487 17.1273V19.163C11.5487 19.5378 11.2449 19.8416 10.8701 19.8416C10.4953 19.8416 10.1915 19.5378 10.1915 19.163V17.1273L8.56295 18.3487C8.26314 18.5735 7.8378 18.5128 7.61295 18.213C7.3881 17.9131 7.44886 17.4878 7.74868 17.263L10.1916 15.4308V11.5407L6.85712 13.5444L6.54498 16.582C6.50947 16.9278 6.21833 17.1909 5.87067 17.1913C5.84734 17.1914 5.82402 17.1902 5.80079 17.1877C5.42822 17.1497 5.15701 16.8169 5.19504 16.4443C5.19509 16.444 5.19509 16.4438 5.19514 16.4435L5.40332 14.418L3.65842 15.4664C3.34159 15.6666 2.92247 15.572 2.72233 15.2551C2.52214 14.9383 2.61673 14.5192 2.93357 14.319C2.9421 14.3137 2.95073 14.3084 2.95951 14.3035L4.7045 13.2549L2.81905 12.4881C2.47415 12.3415 2.31342 11.9431 2.46 11.5982C2.60332 11.2611 2.98836 11.0985 3.3299 11.231L6.1586 12.3813L9.55281 10.3415L6.15831 8.30195L3.32961 9.45258C2.98022 9.58811 2.58709 9.4148 2.45156 9.06537C2.31904 8.72383 2.4816 8.33874 2.81875 8.19547L4.7042 7.42869L2.95916 6.3798C2.6337 6.19396 2.52056 5.77947 2.7064 5.45406C2.89224 5.1286 3.30672 5.01546 3.63214 5.2013C3.64091 5.20628 3.64955 5.2115 3.65808 5.21688L5.40297 6.26528L5.19479 4.2397C5.15657 3.86689 5.42778 3.53364 5.80059 3.49541C6.1734 3.45719 6.50665 3.7284 6.54488 4.10121L6.85702 7.13883L10.1915 9.14231V5.25224L7.74863 3.4201C7.44872 3.19535 7.38776 2.77006 7.61251 2.47015C7.83726 2.17023 8.26255 2.10927 8.56246 2.33403C8.56261 2.33412 8.56276 2.33427 8.56295 2.33437L10.1915 3.55578V1.52015C10.1915 1.14536 10.4953 0.841553 10.8701 0.841553C11.2449 0.841553 11.5487 1.14536 11.5487 1.52015V3.55588L13.1772 2.33447C13.4771 2.10962 13.9024 2.17038 14.1272 2.4702C14.3521 2.77002 14.2913 3.19535 13.9915 3.4202L11.5486 5.25224V9.14236L14.8831 7.13869L15.1952 4.10106C15.2395 3.7289 15.577 3.46311 15.9491 3.5073C16.3129 3.5505 16.5766 3.87464 16.5451 4.23956L16.3369 6.26508L18.0818 5.21668C18.3987 5.01654 18.8178 5.11109 19.0179 5.42792C19.2181 5.74475 19.1235 6.16387 18.8067 6.36402C18.7981 6.36939 18.7895 6.37462 18.7807 6.3796L17.0357 7.42814L18.9212 8.19492C19.2661 8.34155 19.4268 8.73996 19.2802 9.08485C19.1369 9.42201 18.7518 9.58451 18.4103 9.45204L15.5816 8.30175L12.1874 10.3415L15.5819 12.3811L18.4106 11.2308C18.7572 11.0895 19.1527 11.2558 19.294 11.6024C19.2942 11.6028 19.2944 11.6032 19.2945 11.6037Z" fill="#252B5C"/>
</g>
<defs>
<clipPath id="clip0_63_597">
<rect width="20" height="20" fill="white" transform="translate(0.875 0.341553)"/>
</clipPath>
</defs>
</svg>
