<svg width="21" height="21" viewBox="0 0 21 21" fill="none" xmlns="http://www.w3.org/2000/svg">
<g clip-path="url(#clip0_63_593)">
<g clip-path="url(#clip1_63_593)">
<path d="M6.70833 12.0082C6.70833 12.2292 6.62054 12.4412 6.46426 12.5975C6.30797 12.7538 6.09601 12.8416 5.875 12.8416H5.04167C4.82065 12.8416 4.60869 12.7538 4.45241 12.5975C4.29613 12.4412 4.20833 12.2292 4.20833 12.0082C4.20833 11.7872 4.29613 11.5752 4.45241 11.419C4.60869 11.2627 4.82065 11.1749 5.04167 11.1749H5.875C6.09601 11.1749 6.30797 11.2627 6.46426 11.419C6.62054 11.5752 6.70833 11.7872 6.70833 12.0082ZM10.0417 11.1749H9.20833C8.98732 11.1749 8.77536 11.2627 8.61908 11.419C8.4628 11.5752 8.375 11.7872 8.375 12.0082C8.375 12.2292 8.4628 12.4412 8.61908 12.5975C8.77536 12.7538 8.98732 12.8416 9.20833 12.8416H10.0417C10.2627 12.8416 10.4746 12.7538 10.6309 12.5975C10.7872 12.4412 10.875 12.2292 10.875 12.0082C10.875 11.7872 10.7872 11.5752 10.6309 11.419C10.4746 11.2627 10.2627 11.1749 10.0417 11.1749ZM5.875 14.5082H5.04167C4.82065 14.5082 4.60869 14.596 4.45241 14.7523C4.29613 14.9086 4.20833 15.1205 4.20833 15.3416C4.20833 15.5626 4.29613 15.7745 4.45241 15.9308C4.60869 16.0871 4.82065 16.1749 5.04167 16.1749H5.875C6.09601 16.1749 6.30797 16.0871 6.46426 15.9308C6.62054 15.7745 6.70833 15.5626 6.70833 15.3416C6.70833 15.1205 6.62054 14.9086 6.46426 14.7523C6.30797 14.596 6.09601 14.5082 5.875 14.5082ZM10.0417 14.5082H9.20833C8.98732 14.5082 8.77536 14.596 8.61908 14.7523C8.4628 14.9086 8.375 15.1205 8.375 15.3416C8.375 15.5626 8.4628 15.7745 8.61908 15.9308C8.77536 16.0871 8.98732 16.1749 9.20833 16.1749H10.0417C10.2627 16.1749 10.4746 16.0871 10.6309 15.9308C10.7872 15.7745 10.875 15.5626 10.875 15.3416C10.875 15.1205 10.7872 14.9086 10.6309 14.7523C10.4746 14.596 10.2627 14.5082 10.0417 14.5082ZM5.875 4.50822H5.04167C4.82065 4.50822 4.60869 4.59602 4.45241 4.7523C4.29613 4.90858 4.20833 5.12054 4.20833 5.34155C4.20833 5.56257 4.29613 5.77453 4.45241 5.93081C4.60869 6.08709 4.82065 6.17489 5.04167 6.17489H5.875C6.09601 6.17489 6.30797 6.08709 6.46426 5.93081C6.62054 5.77453 6.70833 5.56257 6.70833 5.34155C6.70833 5.12054 6.62054 4.90858 6.46426 4.7523C6.30797 4.59602 6.09601 4.50822 5.875 4.50822ZM10.0417 4.50822H9.20833C8.98732 4.50822 8.77536 4.59602 8.61908 4.7523C8.4628 4.90858 8.375 5.12054 8.375 5.34155C8.375 5.56257 8.4628 5.77453 8.61908 5.93081C8.77536 6.08709 8.98732 6.17489 9.20833 6.17489H10.0417C10.2627 6.17489 10.4746 6.08709 10.6309 5.93081C10.7872 5.77453 10.875 5.56257 10.875 5.34155C10.875 5.12054 10.7872 4.90858 10.6309 4.7523C10.4746 4.59602 10.2627 4.50822 10.0417 4.50822ZM5.875 7.84155H5.04167C4.82065 7.84155 4.60869 7.92935 4.45241 8.08563C4.29613 8.24191 4.20833 8.45387 4.20833 8.67489C4.20833 8.8959 4.29613 9.10786 4.45241 9.26414C4.60869 9.42042 4.82065 9.50822 5.04167 9.50822H5.875C6.09601 9.50822 6.30797 9.42042 6.46426 9.26414C6.62054 9.10786 6.70833 8.8959 6.70833 8.67489C6.70833 8.45387 6.62054 8.24191 6.46426 8.08563C6.30797 7.92935 6.09601 7.84155 5.875 7.84155ZM10.0417 7.84155H9.20833C8.98732 7.84155 8.77536 7.92935 8.61908 8.08563C8.4628 8.24191 8.375 8.45387 8.375 8.67489C8.375 8.8959 8.4628 9.10786 8.61908 9.26414C8.77536 9.42042 8.98732 9.50822 9.20833 9.50822H10.0417C10.2627 9.50822 10.4746 9.42042 10.6309 9.26414C10.7872 9.10786 10.875 8.8959 10.875 8.67489C10.875 8.45387 10.7872 8.24191 10.6309 8.08563C10.4746 7.92935 10.2627 7.84155 10.0417 7.84155ZM20.875 8.67489V16.1749C20.8737 17.2795 20.4343 18.3386 19.6532 19.1197C18.872 19.9008 17.813 20.3402 16.7083 20.3416H5.04167C3.937 20.3402 2.87796 19.9008 2.09685 19.1197C1.31573 18.3386 0.876323 17.2795 0.875 16.1749L0.875 4.50822C0.876323 3.40356 1.31573 2.34452 2.09685 1.5634C2.87796 0.782288 3.937 0.342876 5.04167 0.341553L10.0417 0.341553C11.1463 0.342876 12.2054 0.782288 12.9865 1.5634C13.7676 2.34452 14.207 3.40356 14.2083 4.50822H16.7083C17.813 4.50954 18.872 4.94895 19.6532 5.73007C20.4343 6.51118 20.8737 7.57022 20.875 8.67489ZM5.04167 18.6749H12.5417V4.50822C12.5417 3.84518 12.2783 3.20929 11.8094 2.74045C11.3406 2.27161 10.7047 2.00822 10.0417 2.00822H5.04167C4.37863 2.00822 3.74274 2.27161 3.2739 2.74045C2.80506 3.20929 2.54167 3.84518 2.54167 4.50822V16.1749C2.54167 16.8379 2.80506 17.4738 3.2739 17.9427C3.74274 18.4115 4.37863 18.6749 5.04167 18.6749ZM19.2083 8.67489C19.2083 8.01184 18.9449 7.37596 18.4761 6.90712C18.0073 6.43828 17.3714 6.17489 16.7083 6.17489H14.2083V18.6749H16.7083C17.3714 18.6749 18.0073 18.4115 18.4761 17.9427C18.9449 17.4738 19.2083 16.8379 19.2083 16.1749V8.67489ZM16.7083 11.1749C16.5435 11.1749 16.3824 11.2238 16.2454 11.3153C16.1083 11.4069 16.0015 11.537 15.9384 11.6893C15.8754 11.8416 15.8589 12.0091 15.891 12.1708C15.9232 12.3324 16.0025 12.4809 16.1191 12.5975C16.2356 12.714 16.3841 12.7934 16.5458 12.8255C16.7074 12.8577 16.875 12.8412 17.0272 12.7781C17.1795 12.715 17.3097 12.6082 17.4012 12.4712C17.4928 12.3342 17.5417 12.173 17.5417 12.0082C17.5417 11.7872 17.4539 11.5752 17.2976 11.419C17.1413 11.2627 16.9293 11.1749 16.7083 11.1749ZM16.7083 14.5082C16.5435 14.5082 16.3824 14.5571 16.2454 14.6487C16.1083 14.7402 16.0015 14.8704 15.9384 15.0226C15.8754 15.1749 15.8589 15.3425 15.891 15.5041C15.9232 15.6658 16.0025 15.8143 16.1191 15.9308C16.2356 16.0474 16.3841 16.1267 16.5458 16.1589C16.7074 16.191 16.875 16.1745 17.0272 16.1115C17.1795 16.0484 17.3097 15.9416 17.4012 15.8045C17.4928 15.6675 17.5417 15.5064 17.5417 15.3416C17.5417 15.1205 17.4539 14.9086 17.2976 14.7523C17.1413 14.596 16.9293 14.5082 16.7083 14.5082ZM16.7083 7.84155C16.5435 7.84155 16.3824 7.89043 16.2454 7.98199C16.1083 8.07356 16.0015 8.20371 15.9384 8.35598C15.8754 8.50825 15.8589 8.67581 15.891 8.83746C15.9232 8.99911 16.0025 9.1476 16.1191 9.26414C16.2356 9.38068 16.3841 9.46005 16.5458 9.49221C16.7074 9.52436 16.875 9.50786 17.0272 9.44479C17.1795 9.38171 17.3097 9.2749 17.4012 9.13786C17.4928 9.00082 17.5417 8.8397 17.5417 8.67489C17.5417 8.45387 17.4539 8.24191 17.2976 8.08563C17.1413 7.92935 16.9293 7.84155 16.7083 7.84155Z" fill="#252B5C"/>
</g>
</g>
<defs>
<clipPath id="clip0_63_593">
<rect width="20" height="20" fill="white" transform="translate(0.875 0.341553)"/>
</clipPath>
<clipPath id="clip1_63_593">
<rect width="20" height="20" fill="white" transform="translate(0.875 0.341553)"/>
</clipPath>
</defs>
</svg>
