<svg width="21" height="21" viewBox="0 0 21 21" fill="none" xmlns="http://www.w3.org/2000/svg">
<g clip-path="url(#clip0_63_596)">
<path d="M19.5833 16.6786V15.0952C19.5805 12.9239 18.7673 10.8319 17.303 9.22867C15.8387 7.62543 13.8288 6.62644 11.6667 6.42726V5.37593C11.9685 5.20165 12.2044 4.93265 12.3378 4.61064C12.4712 4.28862 12.4946 3.93159 12.4044 3.59492C12.3142 3.25825 12.1154 2.96076 11.8389 2.74858C11.5624 2.5364 11.2235 2.42139 10.875 2.42139C10.5265 2.42139 10.1876 2.5364 9.91113 2.74858C9.63461 2.96076 9.43583 3.25825 9.34562 3.59492C9.25541 3.93159 9.27881 4.28862 9.41219 4.61064C9.54557 4.93265 9.78148 5.20165 10.0833 5.37593V6.42726C7.92121 6.62644 5.91126 7.62543 4.44699 9.22867C2.98271 10.8319 2.16954 12.9239 2.16667 15.0952V16.6786C1.9567 16.6786 1.75534 16.762 1.60687 16.9104C1.45841 17.0589 1.375 17.2603 1.375 17.4702C1.375 17.6802 1.45841 17.8815 1.60687 18.03C1.75534 18.1785 1.9567 18.2619 2.16667 18.2619H19.5833C19.7933 18.2619 19.9947 18.1785 20.1431 18.03C20.2916 17.8815 20.375 17.6802 20.375 17.4702C20.375 17.2603 20.2916 17.0589 20.1431 16.9104C19.9947 16.762 19.7933 16.6786 19.5833 16.6786ZM3.75 15.0952C4.12446 5.64747 17.6287 5.65459 18 15.0952V16.6786H3.75V15.0952Z" fill="#252B5C"/>
</g>
<defs>
<clipPath id="clip0_63_596">
<rect width="20" height="20" fill="white" transform="translate(0.875 0.341553)"/>
</clipPath>
</defs>
</svg>
