<svg width="21" height="21" viewBox="0 0 21 21" fill="none" xmlns="http://www.w3.org/2000/svg">
<g clip-path="url(#clip0_63_598)">
<path d="M17.9875 19.0238C17.1031 19.0165 16.2552 18.6702 15.6185 18.0565C14.981 18.6673 14.1323 19.0083 13.2494 19.0083C12.3665 19.0083 11.5178 18.6673 10.8804 18.0565C10.2429 18.6673 9.39417 19.0083 8.5113 19.0083C7.62844 19.0083 6.77969 18.6673 6.14225 18.0565C5.55214 18.6397 4.76429 18.9797 3.93511 19.009C3.10593 19.0382 2.29606 18.7546 1.66632 18.2144C1.58759 18.1456 1.5233 18.0619 1.47719 17.968C1.43107 17.8742 1.40405 17.7721 1.39769 17.6678C1.39133 17.5634 1.40576 17.4588 1.44013 17.3601C1.47451 17.2613 1.52815 17.1704 1.59795 17.0926C1.66774 17.0147 1.7523 16.9515 1.84671 16.9066C1.94113 16.8617 2.04352 16.836 2.14796 16.831C2.25239 16.8259 2.35678 16.8417 2.45507 16.8773C2.55336 16.913 2.6436 16.9678 2.72055 17.0385C2.92768 17.2052 3.17031 17.3221 3.42974 17.3803C3.68916 17.4384 3.95848 17.4362 4.21693 17.3739C4.47539 17.3116 4.71609 17.1908 4.92051 17.0208C5.12492 16.8508 5.2876 16.6361 5.396 16.3934C5.45186 16.2404 5.55342 16.1082 5.6869 16.0148C5.82039 15.9215 5.97935 15.8714 6.14225 15.8714C6.30515 15.8714 6.46411 15.9215 6.5976 16.0148C6.73109 16.1082 6.83264 16.2404 6.8885 16.3934C7.03497 16.6996 7.26507 16.9581 7.55223 17.139C7.83939 17.32 8.17188 17.416 8.5113 17.416C8.85073 17.416 9.18322 17.32 9.47038 17.139C9.75754 16.9581 9.98764 16.6996 10.1341 16.3934C10.1907 16.241 10.2925 16.1097 10.4259 16.0169C10.5593 15.9241 10.7179 15.8744 10.8804 15.8744C11.0429 15.8744 11.2015 15.9241 11.3349 16.0169C11.4683 16.1097 11.5701 16.241 11.6266 16.3934C11.7731 16.6996 12.0032 16.9581 12.2903 17.139C12.5775 17.32 12.91 17.416 13.2494 17.416C13.5888 17.416 13.9213 17.32 14.2085 17.139C14.4956 16.9581 14.7258 16.6996 14.8722 16.3934C14.9281 16.2404 15.0296 16.1082 15.1631 16.0148C15.2966 15.9215 15.4556 15.8714 15.6185 15.8714C15.7814 15.8714 15.9403 15.9215 16.0738 16.0148C16.2073 16.1082 16.3089 16.2404 16.3647 16.3934C16.4732 16.636 16.6358 16.8505 16.8402 17.0204C17.0445 17.1903 17.2851 17.3111 17.5435 17.3734C17.8018 17.4357 18.071 17.4379 18.3304 17.3799C18.5897 17.3218 18.8323 17.2051 19.0394 17.0385C19.1962 16.9063 19.3983 16.8403 19.603 16.8544C19.8077 16.8686 19.9988 16.9619 20.1359 17.1145C20.273 17.2671 20.3453 17.467 20.3376 17.672C20.3298 17.877 20.2426 18.071 20.0944 18.2128C19.5167 18.7347 18.766 19.0237 17.9875 19.0238ZM17.9875 14.2857C17.1031 14.2784 16.2552 13.9321 15.6185 13.3183C14.981 13.9292 14.1323 14.2702 13.2494 14.2702C12.3665 14.2702 11.5178 13.9292 10.8804 13.3183C10.2429 13.9292 9.39417 14.2702 8.5113 14.2702C7.62844 14.2702 6.77969 13.9292 6.14225 13.3183C5.55214 13.9016 4.76429 14.2416 3.93511 14.2708C3.10593 14.3001 2.29606 14.0165 1.66632 13.4763C1.58759 13.4075 1.5233 13.3237 1.47719 13.2299C1.43107 13.1361 1.40405 13.034 1.39769 12.9297C1.39133 12.8253 1.40576 12.7207 1.44013 12.622C1.47451 12.5232 1.52815 12.4323 1.59795 12.3545C1.66774 12.2766 1.7523 12.2134 1.84671 12.1685C1.94113 12.1236 2.04352 12.0979 2.14796 12.0928C2.25239 12.0878 2.35678 12.1036 2.45507 12.1392C2.55336 12.1749 2.6436 12.2297 2.72055 12.3004C2.92768 12.4671 3.17031 12.584 3.42974 12.6422C3.68916 12.7003 3.95848 12.6981 4.21693 12.6358C4.47539 12.5735 4.71609 12.4527 4.92051 12.2827C5.12492 12.1127 5.2876 11.898 5.396 11.6553C5.45186 11.5022 5.55342 11.3701 5.6869 11.2767C5.82039 11.1833 5.97935 11.1333 6.14225 11.1333C6.30515 11.1333 6.46411 11.1833 6.5976 11.2767C6.73109 11.3701 6.83264 11.5022 6.8885 11.6553C7.03497 11.9615 7.26507 12.22 7.55223 12.4009C7.83939 12.5819 8.17188 12.6779 8.5113 12.6779C8.85073 12.6779 9.18322 12.5819 9.47038 12.4009C9.75754 12.22 9.98764 11.9615 10.1341 11.6553C10.1903 11.5026 10.292 11.3708 10.4254 11.2778C10.5589 11.1847 10.7177 11.1348 10.8804 11.1348C11.0431 11.1348 11.2018 11.1847 11.3353 11.2778C11.4687 11.3708 11.5704 11.5026 11.6266 11.6553C11.7731 11.9615 12.0032 12.22 12.2903 12.4009C12.5775 12.5819 12.91 12.6779 13.2494 12.6779C13.5888 12.6779 13.9213 12.5819 14.2085 12.4009C14.4956 12.22 14.7258 11.9615 14.8722 11.6553C14.9284 11.5026 15.0301 11.3708 15.1635 11.2778C15.297 11.1847 15.4558 11.1348 15.6185 11.1348C15.7812 11.1348 15.9399 11.1847 16.0734 11.2778C16.2068 11.3708 16.3085 11.5026 16.3647 11.6553C16.4732 11.8979 16.6358 12.1124 16.8402 12.2823C17.0445 12.4522 17.2851 12.573 17.5435 12.6353C17.8018 12.6976 18.071 12.6998 18.3304 12.6418C18.5897 12.5837 18.8323 12.467 19.0394 12.3004C19.1962 12.1682 19.3983 12.1022 19.603 12.1163C19.8077 12.1305 19.9988 12.2238 20.1359 12.3764C20.273 12.529 20.3453 12.7289 20.3376 12.9339C20.3298 13.1389 20.2426 13.3329 20.0944 13.4747C19.5167 13.9966 18.766 14.2856 17.9875 14.2857ZM17.9875 9.5476C17.1031 9.54026 16.2552 9.19404 15.6185 8.58024C14.981 9.19108 14.1323 9.53209 13.2494 9.53209C12.3665 9.53209 11.5178 9.19108 10.8804 8.58024C10.2429 9.19108 9.39417 9.53209 8.5113 9.53209C7.62844 9.53209 6.77969 9.19108 6.14225 8.58024C5.55214 9.16348 4.76429 9.50348 3.93511 9.53274C3.10593 9.562 2.29606 9.27837 1.66632 8.73817C1.58335 8.67067 1.51496 8.58702 1.4653 8.4923C1.41563 8.39757 1.38573 8.29374 1.3774 8.18711C1.36907 8.08048 1.38249 7.97326 1.41684 7.87197C1.45119 7.77068 1.50577 7.67743 1.57725 7.59786C1.64872 7.5183 1.73562 7.45409 1.83267 7.40912C1.92971 7.36415 2.03488 7.33936 2.14179 7.33626C2.2487 7.33316 2.35513 7.35181 2.45462 7.39108C2.5541 7.43034 2.64458 7.48941 2.72055 7.5647C2.92768 7.73137 3.17031 7.84828 3.42974 7.90642C3.68916 7.96456 3.95848 7.96239 4.21693 7.90006C4.47539 7.83774 4.71609 7.71692 4.92051 7.54693C5.12492 7.37693 5.2876 7.16229 5.396 6.91953C5.45186 6.76651 5.55342 6.63436 5.6869 6.54098C5.82039 6.44761 5.97935 6.39753 6.14225 6.39753C6.30515 6.39753 6.46411 6.44761 6.5976 6.54098C6.73109 6.63436 6.83264 6.76651 6.8885 6.91953C7.03497 7.22572 7.26507 7.48423 7.55223 7.66519C7.83939 7.84616 8.17188 7.94218 8.5113 7.94218C8.85073 7.94218 9.18322 7.84616 9.47038 7.66519C9.75754 7.48423 9.98764 7.22572 10.1341 6.91953C10.1907 6.76719 10.2925 6.63581 10.4259 6.54303C10.5593 6.45025 10.7179 6.40052 10.8804 6.40052C11.0429 6.40052 11.2015 6.45025 11.3349 6.54303C11.4683 6.63581 11.5701 6.76719 11.6266 6.91953C11.7731 7.22572 12.0032 7.48423 12.2903 7.66519C12.5775 7.84616 12.91 7.94218 13.2494 7.94218C13.5888 7.94218 13.9213 7.84616 14.2085 7.66519C14.4956 7.48423 14.7258 7.22572 14.8722 6.91953C14.9281 6.76651 15.0296 6.63436 15.1631 6.54098C15.2966 6.44761 15.4556 6.39753 15.6185 6.39753C15.7814 6.39753 15.9403 6.44761 16.0738 6.54098C16.2073 6.63436 16.3089 6.76651 16.3647 6.91953C16.4732 7.16216 16.6358 7.37668 16.8402 7.54659C17.0445 7.71649 17.2851 7.83725 17.5435 7.89957C17.8018 7.96188 18.071 7.9641 18.3304 7.90605C18.5897 7.84799 18.8323 7.73122 19.0394 7.5647C19.1962 7.43245 19.3983 7.36642 19.603 7.38059C19.8077 7.39476 19.9988 7.48801 20.1359 7.64062C20.273 7.79322 20.3453 7.99319 20.3376 8.19819C20.3298 8.40319 20.2426 8.59714 20.0944 8.73896C19.5164 9.25998 18.7657 9.5481 17.9875 9.5476ZM17.9875 4.80949C17.1031 4.80216 16.2552 4.45593 15.6185 3.84213C14.981 4.45297 14.1323 4.79398 13.2494 4.79398C12.3665 4.79398 11.5178 4.45297 10.8804 3.84213C10.2429 4.45297 9.39417 4.79398 8.5113 4.79398C7.62844 4.79398 6.77969 4.45297 6.14225 3.84213C5.55214 4.42537 4.76429 4.76537 3.93511 4.79463C3.10593 4.82389 2.29606 4.54026 1.66632 4.00007C1.58335 3.93256 1.51496 3.84891 1.4653 3.75419C1.41563 3.65946 1.38573 3.55563 1.3774 3.449C1.36907 3.34237 1.38249 3.23516 1.41684 3.13387C1.45119 3.03258 1.50577 2.93932 1.57725 2.85976C1.64872 2.78019 1.73562 2.71598 1.83267 2.67101C1.92971 2.62604 2.03488 2.60125 2.14179 2.59815C2.2487 2.59505 2.35513 2.6137 2.45462 2.65297C2.5541 2.69224 2.64458 2.75131 2.72055 2.82659C2.92768 2.99326 3.17031 3.11017 3.42974 3.16831C3.68916 3.22646 3.95848 3.22428 4.21693 3.16195C4.47539 3.09963 4.71609 2.97882 4.92051 2.80882C5.12492 2.63883 5.2876 2.42418 5.396 2.18142C5.45186 2.0284 5.55342 1.89625 5.6869 1.80287C5.82039 1.7095 5.97935 1.65942 6.14225 1.65942C6.30515 1.65942 6.46411 1.7095 6.5976 1.80287C6.73109 1.89625 6.83264 2.0284 6.8885 2.18142C7.03497 2.48762 7.26507 2.74613 7.55223 2.92709C7.83939 3.10805 8.17188 3.20408 8.5113 3.20408C8.85073 3.20408 9.18322 3.10805 9.47038 2.92709C9.75754 2.74613 9.98764 2.48762 10.1341 2.18142C10.1894 2.03156 10.2886 1.90182 10.4187 1.80907C10.5487 1.71632 10.7037 1.66485 10.8634 1.66136C11.0231 1.65787 11.1802 1.70251 11.3142 1.78949C11.4482 1.87646 11.5529 2.00175 11.6148 2.14904L11.6266 2.18221C11.7731 2.48841 12.0032 2.74692 12.2903 2.92788C12.5775 3.10884 12.91 3.20486 13.2494 3.20486C13.5888 3.20486 13.9213 3.10884 14.2085 2.92788C14.4956 2.74692 14.7258 2.48841 14.8722 2.18221C14.9288 2.02987 15.0306 1.89849 15.164 1.80571C15.2974 1.71294 15.456 1.66321 15.6185 1.66321C15.781 1.66321 15.9396 1.71294 16.073 1.80571C16.2064 1.89849 16.3082 2.02987 16.3647 2.18221C16.4732 2.42484 16.6358 2.63937 16.8402 2.80927C17.0445 2.97917 17.2851 3.09993 17.5435 3.16225C17.8018 3.22457 18.071 3.22678 18.3304 3.16873C18.5897 3.11068 18.8323 2.9939 19.0394 2.82738C19.1158 2.75425 19.2062 2.69722 19.3051 2.65968C19.404 2.62213 19.5094 2.60485 19.6151 2.60884C19.7208 2.61283 19.8247 2.63802 19.9205 2.68292C20.0162 2.72782 20.102 2.7915 20.1727 2.87019C20.2434 2.94888 20.2976 3.04098 20.332 3.14101C20.3664 3.24104 20.3804 3.34697 20.3731 3.4525C20.3658 3.55804 20.3374 3.66103 20.2895 3.75536C20.2416 3.84969 20.1753 3.93345 20.0944 4.00164C19.5163 4.52237 18.7656 4.81021 17.9875 4.80949Z" fill="#252B5C"/>
</g>
<defs>
<clipPath id="clip0_63_598">
<rect width="20" height="20" fill="white" transform="translate(0.875 0.341553)"/>
</clipPath>
</defs>
</svg>
