<svg width="21" height="21" viewBox="0 0 21 21" fill="none" xmlns="http://www.w3.org/2000/svg">
<g clip-path="url(#clip0_63_595)">
<path d="M18.7917 8.75605V5.92189C18.7916 5.73671 18.7811 5.55169 18.76 5.36772C18.6542 4.3993 18.25 3.48773 17.6032 2.75924C16.9564 2.03075 16.0991 1.5214 15.15 1.30172C12.333 0.688164 9.41698 0.688164 6.6 1.30172C5.65097 1.52151 4.79373 2.03089 4.14696 2.75936C3.5002 3.48783 3.09588 4.39934 2.99 5.36772C2.96895 5.55169 2.95837 5.73671 2.95833 5.92189V8.75605C2.53841 8.75605 2.13568 8.92287 1.83875 9.2198C1.54182 9.51673 1.375 9.91946 1.375 10.3394L1.375 11.1311C1.375 11.551 1.54182 11.9537 1.83875 12.2506C2.13568 12.5476 2.53841 12.7144 2.95833 12.7144V14.2977C2.95796 14.9123 3.10088 15.5185 3.37572 16.0682C3.65057 16.6179 4.04978 17.0959 4.54167 17.4644V17.8602C4.54117 18.351 4.72307 18.8245 5.05204 19.1888C5.38102 19.553 5.8336 19.782 6.32193 19.8314C6.81026 19.8807 7.2995 19.7468 7.69467 19.4557C8.08984 19.1646 8.36275 18.7371 8.46042 18.2561H13.2896C13.3873 18.7371 13.6602 19.1646 14.0553 19.4557C14.4505 19.7468 14.9397 19.8807 15.4281 19.8314C15.9164 19.782 16.369 19.553 16.698 19.1888C17.0269 18.8245 17.2088 18.351 17.2083 17.8602V17.4644C17.7002 17.0959 18.0994 16.6179 18.3743 16.0682C18.6491 15.5185 18.792 14.9123 18.7917 14.2977V12.7144C19.2116 12.7144 19.6143 12.5476 19.9113 12.2506C20.2082 11.9537 20.375 11.551 20.375 11.1311V10.3394C20.375 9.91946 20.2082 9.51673 19.9113 9.2198C19.6143 8.92287 19.2116 8.75605 18.7917 8.75605ZM4.54167 11.1311V6.38105H17.2083V11.1311H4.54167ZM6.95783 2.84389C9.54014 2.28214 12.213 2.28214 14.7953 2.84389C15.297 2.9608 15.7618 3.20056 16.1479 3.5416C16.534 3.88264 16.8293 4.31428 17.0073 4.79772H14.0417C14.0417 4.58776 13.9583 4.38639 13.8098 4.23793C13.6613 4.08946 13.46 4.00605 13.25 4.00605H8.5C8.29004 4.00605 8.08867 4.08946 7.94021 4.23793C7.79174 4.38639 7.70833 4.58776 7.70833 4.79772H4.74275C4.92099 4.3139 5.21677 3.88202 5.60344 3.54095C5.99012 3.19987 6.45555 2.96033 6.95783 2.84389ZM14.8333 16.6727H6.91667C6.28678 16.6727 5.68269 16.4225 5.23729 15.9771C4.79189 15.5317 4.54167 14.9276 4.54167 14.2977V12.7144H6.125V13.5061C6.125 13.716 6.20841 13.9174 6.35687 14.0658C6.50534 14.2143 6.7067 14.2977 6.91667 14.2977C7.12663 14.2977 7.32799 14.2143 7.47646 14.0658C7.62493 13.9174 7.70833 13.716 7.70833 13.5061V12.7144H14.0417V13.5061C14.0417 13.716 14.1251 13.9174 14.2735 14.0658C14.422 14.2143 14.6234 14.2977 14.8333 14.2977C15.0433 14.2977 15.2447 14.2143 15.3931 14.0658C15.5416 13.9174 15.625 13.716 15.625 13.5061V12.7144H17.2083V14.2977C17.2083 14.9276 16.9581 15.5317 16.5127 15.9771C16.0673 16.4225 15.4632 16.6727 14.8333 16.6727Z" fill="#252B5C"/>
</g>
<defs>
<clipPath id="clip0_63_595">
<rect width="20" height="20" fill="white" transform="translate(0.875 0.341553)"/>
</clipPath>
</defs>
</svg>
